Coordinates
version=1
nRows=65
nColumns=12
inDegrees=yes

Units are S.I. units (second, meters, Newtons, ...)
Angles are in degrees

endheader
time	SC_y	SC_z	SC_x	AC_y	AC_z	AC_x	GH_y	GH_z	GH_yy	EL_x	PS_y
       0.0              -33.69          30.38          60.99          60.34         -12.49          10.66          96.74          75.83          99.48          75.02          77.63
   0.01276              -33.69          30.37          60.99          60.34         -12.49          10.66          96.71          75.82          99.45          75.01          77.64
   0.02552              -33.69          30.37          60.99          60.34         -12.49          10.66          96.67          75.82          99.42           75.0          77.65
   0.03828              -33.69          30.37          60.99          60.34         -12.49          10.66          96.63          75.81          99.39           75.0          77.66
   0.05104              -33.68          30.36          60.99          60.34         -12.49          10.66           96.6          75.81          99.35          74.99          77.67
   0.06379              -33.68          30.36          60.99          60.33         -12.49          10.66          96.55           75.8          99.31          74.98          77.68
   0.07655              -33.68          30.36          60.99          60.33         -12.49          10.66          96.51          75.79          99.27          74.97          77.69
   0.08931              -33.68          30.35          60.99          60.33         -12.49          10.66          96.46          75.79          99.23          74.96          77.71
    0.1021              -33.68          30.35          60.99          60.33         -12.49          10.66          96.41          75.78          99.18          74.95          77.72
    0.1148              -33.68          30.34          60.99          60.33          -12.5          10.66          96.36          75.77          99.14          74.94          77.73
    0.1276              -33.68          30.34          60.98          60.33          -12.5          10.66           96.3          75.76          99.08          74.93          77.75
    0.1403              -33.68          30.33          60.98          60.32          -12.5          10.66          96.23          75.75          99.02          74.92          77.77
    0.1531              -33.68          30.33          60.98          60.32          -12.5          10.66          96.17          75.74          98.96           74.9          77.78
    0.1659              -33.68          30.32          60.98          60.32          -12.5          10.66          96.09          75.73           98.9          74.89           77.8
    0.1786              -33.68          30.31          60.98          60.32          -12.5          10.66          96.01          75.72          98.82          74.87          77.82
    0.1914              -33.68           30.3          60.98          60.31          -12.5          10.66          95.92           75.7          98.75          74.86          77.85
    0.2041              -33.68          30.29          60.98          60.31          -12.5          10.66          95.83          75.69          98.66          74.84          77.87
    0.2169              -33.68          30.29          60.97          60.31          -12.5          10.66          95.73          75.67          98.57          74.82           77.9
    0.2297              -33.68          30.28          60.97           60.3         -12.51          10.66          95.62          75.66          98.47          74.79          77.93
    0.2424              -33.68          30.26          60.97           60.3         -12.51          10.66          95.49          75.64          98.36          74.77          77.96
    0.2552              -33.68          30.25          60.97          60.29         -12.51          10.66          95.36          75.62          98.23          74.74          77.99
    0.2679              -33.68          30.24          60.96          60.29         -12.51          10.66          95.21           75.6           98.1          74.71          78.03
    0.2807              -33.68          30.22          60.96          60.28         -12.52          10.66          95.05          75.57          97.95          74.68          78.07
    0.2935              -33.68          30.21          60.96          60.28         -12.52          10.67          94.87          75.54          97.79          74.64          78.12
    0.3062              -33.68          30.19          60.95          60.27         -12.52          10.67          94.66          75.51          97.61           74.6          78.17
     0.319              -33.68          30.17          60.95          60.26         -12.52          10.67          94.44          75.48           97.4          74.56          78.23
    0.3317              -33.68          30.15          60.94          60.25         -12.53          10.67          94.19          75.44          97.17          74.51           78.3
    0.3445              -33.67          30.12          60.94          60.24         -12.53          10.67           93.9           75.4          96.92          74.45          78.37
    0.3572              -33.67          30.09          60.93          60.23         -12.54          10.67          93.58          75.35          96.63          74.39          78.45
      0.37              -33.67          30.06          60.93          60.22         -12.54          10.67          93.22          75.29           96.3          74.32          78.55
    0.3828              -33.67          30.02          60.92           60.2         -12.55          10.68          92.81          75.23          95.92          74.23          78.65
    0.3955              -33.67          29.98          60.91          60.19         -12.56          10.68          92.33          75.16          95.49          74.14          78.78
    0.4083              -33.67          29.93           60.9          60.17         -12.56          10.68          91.78          75.07          94.99          74.03          78.92
     0.421              -33.66          29.87          60.89          60.15         -12.57          10.69          91.14          74.98          94.42           73.9          79.09
    0.4338              -33.66          29.81          60.87          60.12         -12.58          10.69          90.39          74.86          93.74          73.75          79.28
    0.4466              -33.66          29.73          60.85          60.09          -12.6           10.7          89.51          74.73          92.94          73.58          79.51
    0.4593              -33.65          29.63          60.83          60.05         -12.61           10.7          88.47          74.57           92.0          73.37          79.78
    0.4721              -33.65          29.52          60.81          60.01         -12.63          10.71          87.21          74.38          90.86          73.12           80.1
    0.4848              -33.64          29.38          60.78          59.96         -12.65          10.72          85.69          74.15          89.49          72.81           80.5
    0.4976              -33.64          29.22          60.75          59.89         -12.68          10.73          83.84          73.87          87.81          72.44          80.98
    0.5104              -33.63          29.01           60.7          59.81         -12.72          10.74          81.55          73.52          85.73          71.99          81.57
    0.5231              -33.62          28.75          60.65          59.72         -12.76          10.75          78.69          73.08          83.15          71.42          82.31
    0.5359               -33.6          28.43          60.58          59.59         -12.81          10.77           75.1          72.54           79.9           70.7          83.24
    0.5486              -33.59          28.02          60.49          59.43         -12.88           10.8          70.52          71.84          75.76          69.79          84.43
    0.5614              -33.56          27.49          60.38          59.23         -12.97          10.83          64.67          70.95          70.46          68.62          85.94
    0.5741              -33.54          26.81          60.24          58.97         -13.08          10.87          57.16          69.81          63.67          67.13          87.89
    0.5869               -33.5          25.95          60.05          58.64         -13.22          10.92          47.57          68.35          54.99          65.21          90.37
    0.5997              -33.45          24.87          59.82          58.22          -13.4          10.99          35.51          66.52          44.07          62.81           93.5
    0.6124               -33.4          23.54          59.54          57.71         -13.62          11.07          20.81          64.29          30.77          59.88          97.31
    0.6252              -33.33          22.01          59.21          57.12         -13.87          11.16          3.773           61.7          15.35          56.48          101.7
    0.6379              -33.27          20.35          58.86          56.48         -14.15          11.26         -14.67          58.89         -1.339           52.8          106.5
    0.6507               -33.2          18.69          58.51          55.84         -14.42          11.36         -33.12          56.09         -18.03          49.12          111.3
    0.6635              -33.13          17.16          58.18          55.25         -14.68          11.45         -50.16           53.5         -33.45          45.73          115.7
    0.6762              -33.08          15.83           57.9          54.74         -14.89          11.53         -64.86          51.27         -46.75          42.79          119.5
     0.689              -33.03          14.75          57.67          54.33         -15.07           11.6         -76.92          49.43         -57.67          40.39          122.6
    0.7017              -32.99          13.88          57.48          53.99         -15.22          11.65         -86.51          47.97         -66.35          38.48          125.1
    0.7145              -32.97          13.21          57.34          53.73         -15.33          11.69         -94.02          46.83         -73.14          36.98          127.1
    0.7273              -32.94          12.68          57.23          53.53         -15.41          11.73         -99.87          45.94         -78.44          35.81          128.6
      0.74              -32.93          12.27          57.14          53.37         -15.48          11.75         -104.4          45.25         -82.57           34.9          129.8
    0.7528              -32.91          11.95          57.07          53.25         -15.54          11.77         -108.0           44.7         -85.83          34.18          130.7
    0.7655               -32.9          11.69          57.02          53.15         -15.58          11.79         -110.9          44.27         -88.41          33.61          131.4
    0.7783              -32.89          11.48          56.97          53.07         -15.61           11.8         -113.2          43.92         -90.48          33.16          132.0
    0.7911              -32.89          11.32          56.94          53.01         -15.64          11.81         -115.0          43.64         -92.16          32.79          132.5
    0.8038              -32.88          11.18          56.91          52.95         -15.66          11.82         -116.6          43.41         -93.54          32.49          132.9
    0.8166              -32.88          11.07          56.88          52.91         -15.68          11.82         -117.8          43.22         -94.67          32.24          133.2
